HIERARCHY
ROOT Hips
{
	OFFSET -0.001795 -0.223333 0.028219
	CHANNELS 6 Xposition Yposition Zposition Zrotation Yrotation Xrotation 
	JOINT LeftUpLeg
	{
		OFFSET 0.069520 -0.091406 -0.006815
		CHANNELS 3 Zrotation Yrotation Xrotation
		JOINT LeftLeg
		{
			OFFSET 0.034277 -0.375199 -0.004496
			CHANNELS 3 Zrotation Yrotation Xrotation
			JOINT LeftFoot
			{
				OFFSET -0.013596 -0.397961 -0.043693
				CHANNELS 3 Zrotation Yrotation Xrotation
				JOINT LeftToe
				{
					OFFSET 0.026358 -0.055791 0.119288
					CHANNELS 3 Zrotation Yrotation Xrotation
					End Site
					{
						OFFSET 0.000000 0.000000 0.000000
					}
				}
			}
		}
	}
	JOINT RightUpLeg
	{
		OFFSET -0.067670 -0.090522 -0.004320
		CHANNELS 3 Zrotation Yrotation Xrotation
		JOINT RightLeg
		{
			OFFSET -0.038290 -0.382569 -0.008850
			CHANNELS 3 Zrotation Yrotation Xrotation
			JOINT RightFoot
			{
				OFFSET 0.015774 -0.398415 -0.042312
				CHANNELS 3 Zrotation Yrotation Xrotation
				JOINT RightToe
				{
					OFFSET -0.025372 -0.048144 0.123348
					CHANNELS 3 Zrotation Yrotation Xrotation
					End Site
					{
						OFFSET 0.000000 0.000000 0.000000
					}
				}
			}
		}
	}
	JOINT Spine
	{
		OFFSET -0.002533 0.108963 -0.026696
		CHANNELS 3 Zrotation Yrotation Xrotation
		JOINT Spine1
		{
			OFFSET 0.005487 0.135180 0.001092
			CHANNELS 3 Zrotation Yrotation Xrotation
			JOINT Spine2
			{
				OFFSET 0.001457 0.052922 0.025425
				CHANNELS 3 Zrotation Yrotation Xrotation
				JOINT Neck
				{
					OFFSET -0.002778 0.213870 -0.042857
					CHANNELS 3 Zrotation Yrotation Xrotation
					JOINT Head
					{
						OFFSET 0.005152 0.064970 0.051349
						CHANNELS 3 Zrotation Yrotation Xrotation
						End Site
						{
							OFFSET 0.000000 0.000000 0.000000
						}
					}
				}
				JOINT LeftShoulder
				{
					OFFSET 0.078845 0.121749 -0.034090
					CHANNELS 3 Zrotation Yrotation Xrotation
					JOINT LeftArm
					{
						OFFSET 0.090977 0.030469 -0.008868
						CHANNELS 3 Zrotation Yrotation Xrotation
						JOINT LeftForeArm
						{
							OFFSET 0.259612 -0.012772 -0.027456
							CHANNELS 3 Zrotation Yrotation Xrotation
							JOINT LeftHand
							{
								OFFSET 0.249234 0.008986 -0.001171
								CHANNELS 3 Zrotation Yrotation Xrotation
								End Site
								{
									OFFSET 0.000000 0.000000 0.000000
								}
							}
						}
					}
				}
				JOINT RightShoulder
				{
					OFFSET -0.081759 0.118833 -0.038615
					CHANNELS 3 Zrotation Yrotation Xrotation
					JOINT RightArm
					{
						OFFSET -0.096012 0.032551 -0.009143
						CHANNELS 3 Zrotation Yrotation Xrotation
						JOINT RightForeArm
						{
							OFFSET -0.253742 -0.013329 -0.021401
							CHANNELS 3 Zrotation Yrotation Xrotation
							JOINT RightHand
							{
								OFFSET -0.255298 0.007772 -0.005559
								CHANNELS 3 Zrotation Yrotation Xrotation
								End Site
								{
									OFFSET 0.000000 0.000000 0.000000
								}
							}
						}
					}
				}
			}
		}
	}
}
MOTION
Frames: 7
Frame Time: 0.050000
0.000000 0.948287 0.000000 3.467557 -22.897529 9.084386 0.537995 -0.946110 -18.626412 -3.306668 0.553998 1.727779 5.668333 11.152598 15.683221 0.000000 0.000000 0.000000 -12.654988 1.333083 -7.192704 7.320525 -0.338925 5.204615 -11.095883 -25.404156 12.921112 0.000000 0.000000 0.000000 1.771474 -0.392664 18.387424 8.138963 -2.121793 -18.150542 5.859861 14.269619 28.846617 3.485952 -0.622605 -20.066272 0.000000 0.000000 0.000000 -26.479674 1.969637 -3.201496 -42.141386 -7.629112 -4.568072 -69.584517 -51.197267 41.079129 0.000000 0.000000 0.000000 11.044852 11.441294 4.934203 16.646639 24.119960 -0.655970 -36.769790 29.442196 -8.130321 0.000000 0.000000 0.000000 
0.001371 0.947789 0.000316 3.573298 -23.575938 10.275524 0.693826 -0.914458 -19.732477 -3.694168 0.637786 2.248386 4.609861 9.438949 15.358345 0.000000 0.000000 0.000000 -11.563683 1.303672 -7.544462 5.652513 -0.217537 3.594201 -12.791562 -27.799573 14.368116 0.000000 0.000000 0.000000 2.745576 -0.569566 18.126411 7.903327 -2.041926 -18.068699 5.976409 15.915114 28.182939 2.955016 -0.085385 -19.392582 0.000000 0.000000 0.000000 -26.216150 2.896224 -4.325062 -41.137081 -7.089102 -4.368960 -74.076007 -48.153463 40.920907 0.000000 0.000000 0.000000 7.301297 11.923500 5.009701 19.589834 25.839271 -0.199686 -40.504407 29.530289 -8.731835 0.000000 0.000000 0.000000 
0.002021 0.948393 0.000835 4.686748 -22.523200 10.410073 -0.376065 -1.163998 -20.444914 -4.419757 0.805520 3.661947 5.644344 11.256149 13.392987 0.000000 0.000000 0.000000 -12.714233 1.374409 -8.128697 5.995555 -0.256031 4.063262 -14.321665 -29.917189 14.554385 0.000000 0.000000 0.000000 2.401170 -0.544256 16.948903 6.821979 -1.814080 -17.521252 7.019399 15.427540 27.984786 1.960348 0.449994 -18.036873 0.000000 0.000000 0.000000 -26.316417 3.707569 -4.927351 -42.440408 -7.101137 -4.435381 -76.279447 -47.107355 41.592179 0.000000 0.000000 0.000000 7.434948 13.262525 5.592335 18.104439 27.521290 -0.130751 -39.579769 26.393150 -7.473367 0.000000 0.000000 0.000000 
0.002083 0.948097 0.001975 5.212428 -22.993413 10.413349 -0.296885 -1.140053 -19.923553 -5.214581 0.927232 2.599699 5.267474 10.604123 13.904272 0.000000 0.000000 0.000000 -13.648331 1.466584 -8.295914 6.397071 -0.271309 5.338089 -14.999515 -30.809036 14.579826 0.000000 0.000000 0.000000 1.801886 -0.426842 16.252090 8.327130 -2.267516 -16.603092 6.516487 17.212460 28.036552 1.960020 0.660111 -17.237338 0.000000 0.000000 0.000000 -26.783050 3.817530 -5.688129 -42.187744 -6.724080 -4.409101 -78.730770 -46.831990 42.436450 0.000000 0.000000 0.000000 8.355463 14.533026 6.485062 14.534703 28.242290 -0.542104 -40.448500 26.941372 -7.783977 0.000000 0.000000 0.000000 
0.001457 0.947755 0.003439 5.414116 -22.339277 10.591857 -0.571296 -1.213213 -20.104208 -4.502873 0.772058 2.344342 4.250314 9.008213 13.115006 0.000000 0.000000 0.000000 -13.604595 1.444206 -8.123397 6.387686 -0.287292 4.659991 -14.558411 -30.265443 13.987644 0.000000 0.000000 0.000000 2.601263 -0.596978 15.683561 6.280668 -1.810622 -15.897510 7.704945 17.121051 27.368378 1.872211 0.674519 -16.608030 0.000000 0.000000 0.000000 -25.264292 4.317391 -5.819780 -43.947773 -5.786430 -4.783704 -79.818678 -46.027883 42.331853 0.000000 0.000000 0.000000 8.515791 14.387269 6.454303 14.159538 30.026992 -0.426692 -39.506938 27.974391 -7.888822 0.000000 0.000000 0.000000 
0.000239 0.947523 0.005079 5.521541 -21.643432 10.843850 -0.520453 -1.232064 -19.871308 -4.617777 0.755395 1.422333 3.539322 7.952154 13.344337 0.000000 0.000000 0.000000 -13.588769 1.420820 -8.166250 6.372315 -0.298566 5.378815 -14.369348 -30.050593 13.932481 0.000000 0.000000 0.000000 2.481206 -0.591481 15.310179 6.992117 -1.932464 -16.404004 7.657076 17.915887 28.041060 2.226129 0.628405 -16.776177 0.000000 0.000000 0.000000 -23.973830 4.249592 -5.926130 -44.635750 -5.590318 -4.882453 -81.529614 -45.246844 42.306297 0.000000 0.000000 0.000000 7.784162 14.208993 6.425564 14.194036 32.006768 -0.287895 -39.131805 29.105762 -8.014795 0.000000 0.000000 0.000000 
-0.001344 0.946720 0.006538 5.459263 -21.059583 10.580236 -0.164867 -1.178345 -19.167057 -4.573022 0.724560 0.703945 3.317646 7.653875 13.283218 0.000000 0.000000 0.000000 -13.201278 1.360978 -8.320091 6.190220 -0.289129 6.054588 -14.127733 -29.783352 13.354778 0.000000 0.000000 0.000000 2.759271 -0.652010 15.208159 6.571448 -1.837331 -16.279670 7.920871 18.205975 27.883563 2.777716 0.353133 -16.983360 0.000000 0.000000 0.000000 -23.003050 3.851360 -5.666767 -44.504747 -4.667523 -5.131669 -83.493234 -44.413204 42.478595 0.000000 0.000000 0.000000 8.125885 14.199009 6.533614 14.570562 33.319441 -0.104230 -38.171117 30.140763 -8.044934 0.000000 0.000000 0.000000 
